<?xml version="1.0" encoding="utf-8"?><svg id="svg-icon-sprite" xmlns="http://www.w3.org/2000/svg" xmlns:xlink="http://www.w3.org/1999/xlink"><symbol fill="none" viewBox="0 0 14 17" id="icon-arrowDown" xmlns="http://www.w3.org/2000/svg"><path d="M14 6h-4V0H4v6H0l7 7 7-7ZM0 15v2h14v-2H0Z" fill="#8B96A5"/></symbol><symbol fill="none" viewBox="0 0 14 17" id="icon-arrowUp" xmlns="http://www.w3.org/2000/svg"><path d="M4 13h6V7h4L7 0 0 7h4v6Zm-4 2h14v2H0v-2Z" fill="#8B96A5"/></symbol><symbol fill="none" viewBox="0 0 22 21" id="icon-cart" xmlns="http://www.w3.org/2000/svg"><path d="M15.546 11.765c.75 0 1.41-.41 1.75-1.03l3.58-6.49a.996.996 0 0 0-.87-1.48h-14.8l-.94-2H.996v2h2l3.6 7.59-1.35 2.44c-.73 1.34.23 2.97 1.75 2.97h12v-2h-12l1.1-2h7.45Zm-9.39-7h12.15l-2.76 5h-7.02l-2.37-5Zm.84 12c-1.1 0-1.99.9-1.99 2s.89 2 1.99 2 2-.9 2-2-.9-2-2-2Zm10 0c-1.1 0-1.99.9-1.99 2s.89 2 1.99 2 2-.9 2-2-.9-2-2-2Z" fill="#fff"/></symbol><symbol viewBox="0 0 1024 1024" id="icon-close" xmlns="http://www.w3.org/2000/svg"><path fill="currentColor" d="m563.8 512 262.5-312.9c4.4-5.2.7-13.1-6.1-13.1h-79.8c-4.7 0-9.2 2.1-12.3 5.7L511.6 449.8 295.1 191.7c-3-3.6-7.5-5.7-12.3-5.7H203c-6.8 0-10.5 7.9-6.1 13.1L459.4 512 196.9 824.9A7.95 7.95 0 0 0 203 838h79.8c4.7 0 9.2-2.1 12.3-5.7l216.5-258.1 216.5 258.1c3 3.6 7.5 5.7 12.3 5.7h79.8c6.8 0 10.5-7.9 6.1-13.1L563.8 512z"/></symbol><symbol viewBox="0 0 1024 1024" id="icon-delete" xmlns="http://www.w3.org/2000/svg"><path fill="currentColor" d="M360 184h-8c4.4 0 8-3.6 8-8v8h304v-8c0 4.4 3.6 8 8 8h-8v72h72v-80c0-35.3-28.7-64-64-64H352c-35.3 0-64 28.7-64 64v80h72v-72zm504 72H160c-17.7 0-32 14.3-32 32v32c0 4.4 3.6 8 8 8h60.4l24.7 523c1.6 34.1 29.8 61 63.9 61h454c34.2 0 62.3-26.8 63.9-61l24.7-523H888c4.4 0 8-3.6 8-8v-32c0-17.7-14.3-32-32-32zM731.3 840H292.7l-24.2-512h487l-24.2 512z"/></symbol><symbol viewBox="0 0 1024 1024" id="icon-edit" xmlns="http://www.w3.org/2000/svg"><path fill="currentColor" d="M257.7 752c2 0 4-.2 6-.5L431.9 722c2-.4 3.9-1.3 5.3-2.8l423.9-423.9a9.96 9.96 0 0 0 0-14.1L694.9 114.9c-1.9-1.9-4.4-2.9-7.1-2.9s-5.2 1-7.1 2.9L256.8 538.8c-1.5 1.5-2.4 3.3-2.8 5.3l-29.5 168.2a33.5 33.5 0 0 0 9.4 29.8c6.6 6.4 14.9 9.9 23.8 9.9zm67.4-174.4L687.8 215l73.3 73.3-362.7 362.6-88.9 15.7 15.6-89zM880 836H144c-17.7 0-32 14.3-32 32v36c0 4.4 3.6 8 8 8h784c4.4 0 8-3.6 8-8v-36c0-17.7-14.3-32-32-32z"/></symbol></svg>